# Blender 3.5.1
# www.blender.org
mtllib obstacle_model.mtl
o Cube
v 1.000000 1.000000 -1.000000
v 1.000000 -1.000000 -1.000000
v 1.000000 1.000000 1.000000
v 1.000000 -1.000000 1.000000
v -1.000000 1.000000 -1.000000
v -1.000000 -1.000000 -1.000000
v -1.000000 1.000000 1.000000
v -1.000000 -1.000000 1.000000
vn -0.0000 1.0000 -0.0000
vn -0.0000 -0.0000 1.0000
vn -1.0000 -0.0000 -0.0000
vn -0.0000 -1.0000 -0.0000
vn 1.0000 -0.0000 -0.0000
vn -0.0000 -0.0000 -1.0000
vt 0.492170 0.333661
vt 0.507830 0.666339
vt 0.679301 0.318000
vt 0.694962 0.650679
vt 0.476509 0.000982
vt 0.305038 0.349321
vt 0.523491 0.999018
vt 0.320699 0.682000
vt 0.663641 -0.014679
vt 0.866433 0.302339
vt 0.117906 0.364982
vt 0.882094 0.635018
vt 0.133567 0.697661
vt 0.710623 0.983357
s 0
usemtl Material
f 1/1/1 5/5/1 7/9/1 3/3/1
f 4/4/2 3/3/2 7/10/2 8/12/2
f 8/13/3 7/11/3 5/6/3 6/8/3
f 6/7/4 2/2/4 4/4/4 8/14/4
f 2/2/5 1/1/5 3/3/5 4/4/5
f 6/8/6 5/6/6 1/1/6 2/2/6
